<?xml version="1.0" encoding="utf-8"?>
<!-- Generator: Adobe Illustrator 16.0.0, SVG Export Plug-In . SVG Version: 6.00 Build 0)  -->
<!DOCTYPE svg PUBLIC "-//W3C//DTD SVG 1.1//EN" "http://www.w3.org/Graphics/SVG/1.1/DTD/svg11.dtd">
<svg version="1.1" id="Layer_1" xmlns="http://www.w3.org/2000/svg" xmlns:xlink="http://www.w3.org/1999/xlink" x="0px" y="0px"
	 width="40px" height="40px" viewBox="0 0 40 40" enable-background="new 0 0 40 40" xml:space="preserve">
<path fill="#244269" d="M18.824,1.74c-0.494,0.486-1.061,1.029-1.264,1.215l-0.365,0.341l-1.702-0.43
	c-1.394-0.356-1.726-0.421-1.856-0.34c-0.082,0.049-0.421,0.77-0.794,1.669c-0.357,0.867-0.681,1.596-0.713,1.621
	c-0.041,0.024-0.81,0.162-1.718,0.316c-1.013,0.163-1.693,0.316-1.783,0.39c-0.122,0.114-0.129,0.3-0.097,1.92l0.049,1.792
	L7.121,11.19c-0.827,0.543-1.475,1.029-1.499,1.111c-0.025,0.097,0.276,0.81,0.721,1.751l0.77,1.588l-0.907,1.435
	c-0.503,0.786-0.933,1.507-0.948,1.604c-0.041,0.21-0.041,0.21,1.467,1.476c0.973,0.817,1.191,1.045,1.191,1.216
	c0,0.113-0.105,0.899-0.234,1.75c-0.194,1.28-0.219,1.563-0.13,1.702c0.073,0.122,0.527,0.283,1.775,0.64l1.669,0.479l0.122,0.413
	c0.065,0.228,0.284,0.997,0.478,1.702c0.203,0.713,0.414,1.321,0.47,1.354c0.146,0.098,0.454,0.081,1.588-0.081l0.989-0.138v4.814
	c0,3.16,0.033,4.862,0.082,4.968c0.049,0.09,0.17,0.154,0.284,0.154c0.129,0,1.191-0.689,2.958-1.913
	c1.767-1.224,2.787-1.881,2.853-1.839c0.057,0.032,1.297,0.892,2.756,1.903c1.727,1.2,2.723,1.849,2.861,1.849
	c0.113,0,0.234-0.065,0.283-0.154c0.049-0.105,0.08-1.92,0.08-5.316v-5.155l0.43,0.041c0.229,0.023,1.006,0.064,1.727,0.089
	c1.111,0.049,1.322,0.032,1.428-0.073c0.072-0.073,0.203-0.551,0.307-1.118c0.105-0.552,0.244-1.321,0.316-1.719l0.131-0.713
	l1.66-0.665c1.621-0.64,1.662-0.665,1.686-0.9c0.018-0.138-0.145-0.915-0.348-1.733c-0.203-0.819-0.365-1.549-0.365-1.613
	s0.551-0.689,1.215-1.395c0.674-0.696,1.217-1.336,1.217-1.417c0-0.073-0.438-0.697-0.973-1.386
	c-0.533-0.689-1.012-1.321-1.068-1.403c-0.082-0.129,0-0.413,0.484-1.734c0.602-1.628,0.658-1.839,0.479-1.986
	c-0.049-0.048-0.752-0.437-1.555-0.867S32.1,9.115,32.084,9.099c-0.016-0.008-0.072-0.786-0.137-1.71
	c-0.057-0.932-0.139-1.758-0.162-1.84c-0.072-0.187-0.146-0.194-2.027-0.34C28.6,5.12,28.113,5.055,28.057,4.981
	c-0.041-0.065-0.406-0.746-0.811-1.516c-0.396-0.77-0.803-1.451-0.9-1.507c-0.154-0.105-0.316-0.065-1.621,0.405
	c-0.793,0.284-1.549,0.559-1.66,0.599c-0.195,0.082-0.316,0-1.58-1.005c-0.893-0.705-1.435-1.086-1.565-1.086
	C19.781,0.872,19.465,1.123,18.824,1.74z M21.264,3.828c0.671,0.534,1.256,0.94,1.347,0.94c0.084,0,0.783-0.226,1.544-0.497
	c0.802-0.293,1.42-0.474,1.45-0.437c0.037,0.038,0.377,0.662,0.752,1.384c0.384,0.723,0.729,1.332,0.769,1.361
	c0.045,0.023,0.661,0.091,1.368,0.136c0.714,0.053,1.414,0.106,1.563,0.128l0.272,0.038l0.089,1.557
	c0.062,0.993,0.129,1.587,0.182,1.647c0.053,0.045,0.669,0.398,1.37,0.775c0.705,0.376,1.3,0.714,1.33,0.738
	c0.031,0.029-0.182,0.676-0.466,1.443c-0.286,0.768-0.527,1.459-0.527,1.542c0,0.135,0.233,0.451,1.566,2.159l0.329,0.429
	l-1.075,1.135c-0.594,0.632-1.09,1.204-1.106,1.271c-0.015,0.076,0.136,0.752,0.324,1.512c0.188,0.761,0.34,1.422,0.323,1.481
	c-0.015,0.061-0.616,0.339-1.375,0.641c-0.746,0.293-1.407,0.586-1.475,0.653c-0.084,0.083-0.219,0.617-0.398,1.617
	c-0.151,0.828-0.279,1.505-0.295,1.521c-0.007,0.007-0.691-0.016-1.521-0.053c-0.819-0.038-1.548-0.053-1.616-0.03
	c-0.067,0.021-0.512,0.609-0.978,1.301c-0.468,0.692-0.866,1.271-0.881,1.287c-0.015,0.022-0.669-0.278-1.443-0.663
	c-0.902-0.45-1.467-0.684-1.55-0.653c-0.067,0.022-0.707,0.405-1.407,0.842c-0.707,0.437-1.286,0.782-1.302,0.768
	c-0.414-0.543-1.963-2.37-2.031-2.407c-0.052-0.028-0.782,0.037-1.625,0.159c-0.903,0.127-1.549,0.18-1.579,0.143
	c-0.023-0.039-0.227-0.715-0.444-1.499c-0.309-1.104-0.429-1.45-0.557-1.533c-0.083-0.054-0.768-0.271-1.512-0.489
	c-0.745-0.211-1.377-0.414-1.407-0.436c-0.03-0.031,0.053-0.729,0.173-1.557c0.128-0.852,0.196-1.558,0.166-1.626
	C9.582,20.489,9.049,20,8.425,19.481c-0.618-0.527-1.137-0.979-1.152-1.008c-0.007-0.038,0.354-0.647,0.812-1.37
	c0.452-0.722,0.828-1.347,0.828-1.391c0-0.038-0.278-0.632-0.609-1.316c-0.331-0.685-0.64-1.316-0.678-1.415
	c-0.06-0.158,0.03-0.233,1.241-1.037c0.723-0.482,1.324-0.926,1.34-0.994c0.015-0.076,0.006-0.79-0.023-1.594
	c-0.021-0.806-0.021-1.49,0-1.52c0.023-0.029,0.692-0.158,1.475-0.286c0.79-0.136,1.497-0.286,1.579-0.338
	c0.098-0.061,0.361-0.602,0.714-1.496c0.384-0.941,0.602-1.4,0.678-1.4c0.06,0,0.759,0.166,1.542,0.369
	c0.895,0.225,1.473,0.338,1.549,0.301c0.067-0.031,0.587-0.519,1.166-1.075c0.572-0.557,1.083-1.016,1.121-1.016
	C20.053,2.888,20.617,3.309,21.264,3.828z M17.55,30.904c0.875,0.946,1.078,1.115,1.222,1.039c0.045-0.023,0.607-0.328,1.243-0.677
	l1.151-0.637l1.256,0.561c0.706,0.314,1.313,0.554,1.399,0.543c0.092-0.013,0.294-0.229,0.647-0.688l0.505-0.666v2.988
	c0,1.646-0.014,2.988-0.033,2.988c-0.021,0-0.943-0.565-2.054-1.255c-1.111-0.688-2.087-1.254-2.16-1.254
	c-0.069,0-1.038,0.565-2.158,1.254c-1.111,0.689-2.046,1.255-2.066,1.255s-0.033-1.429-0.033-3.182c0-3.011,0.007-3.18,0.118-3.18
	C16.659,29.994,17.039,30.355,17.55,30.904z"/>
<path fill="#244269" d="M19.333,5.981c-2.379,0.336-4.501,1.428-6.177,3.167c-1.132,1.17-1.856,2.355-2.372,3.838
	c-0.429,1.248-0.546,1.974-0.546,3.448c-0.008,2.231,0.5,3.939,1.7,5.771c1.498,2.278,3.798,3.862,6.552,4.51
	c0.757,0.172,1.038,0.203,2.23,0.203c1.2,0,1.475-0.031,2.237-0.211c2.739-0.632,5.01-2.2,6.528-4.485
	c0.79-1.177,1.257-2.324,1.585-3.845c0.186-0.905,0.195-2.973,0-3.892c-0.437-2.091-1.327-3.799-2.738-5.289
	c-1.506-1.575-3.284-2.574-5.429-3.066C22.142,5.95,20.121,5.873,19.333,5.981z M22.437,7.947c2.111,0.464,3.959,1.641,5.212,3.322
	c0.498,0.664,1.177,2.014,1.377,2.74c0.589,2.125,0.409,4.214-0.512,6.125c-1.226,2.526-3.489,4.27-6.271,4.816
	c-0.58,0.119-2.464,0.119-3.045,0c-2.782-0.546-5.045-2.289-6.27-4.816c-1.127-2.339-1.142-5.017-0.027-7.356
	c0.443-0.934,0.858-1.543,1.502-2.229c1.384-1.466,3.114-2.38,5.107-2.692C20.105,7.761,21.843,7.816,22.437,7.947z"/>
<path fill="#EE2F24" d="M20.373,10.225c-0.065,0.065-0.495,0.949-0.957,1.962c-0.575,1.248-0.892,1.856-1.005,1.905
	c-0.089,0.032-1.021,0.202-2.066,0.364c-1.045,0.162-1.969,0.324-2.042,0.365c-0.089,0.049-0.146,0.17-0.146,0.308
	c0,0.195,0.243,0.446,1.539,1.638c1.07,0.98,1.541,1.467,1.541,1.581c0,0.097-0.129,0.973-0.284,1.946
	c-0.153,0.979-0.283,1.888-0.283,2.018c0,0.283,0.121,0.446,0.34,0.446c0.081,0,0.948-0.454,1.937-1.013
	c0.989-0.561,1.831-1.014,1.88-1.014c0.041,0,0.9,0.421,1.904,0.932c0.998,0.512,1.889,0.933,1.971,0.933
	c0.08,0,0.201-0.081,0.268-0.187c0.105-0.161,0.072-0.381-0.293-2.229l-0.414-2.051l1.51-1.524c0.973-0.973,1.516-1.581,1.516-1.686
	c0-0.34-0.211-0.405-2.107-0.624c-1.006-0.114-1.938-0.235-2.084-0.251c-0.242-0.041-0.299-0.138-1.199-1.888
	C20.843,10.087,20.697,9.901,20.373,10.225z M21.22,14.079c0.3,0.588,0.588,1.103,0.635,1.142c0.052,0.052,0.519,0.127,1.238,0.208
	c0.636,0.069,1.19,0.138,1.234,0.15c0.053,0.018-0.234,0.352-0.819,0.94c-0.494,0.496-0.904,0.934-0.904,0.963
	s0.108,0.588,0.236,1.251c0.132,0.658,0.226,1.211,0.207,1.229c-0.017,0.017-0.523-0.219-1.124-0.519
	c-0.599-0.306-1.131-0.554-1.17-0.554c-0.041,0-0.566,0.277-1.166,0.611c-0.594,0.335-1.096,0.6-1.101,0.588
	c-0.012-0.005,0.063-0.548,0.173-1.2c0.104-0.652,0.19-1.223,0.196-1.275c0-0.052-0.427-0.49-0.951-0.974
	c-0.525-0.484-0.946-0.888-0.94-0.894c0.011-0.012,0.571-0.104,1.246-0.208c0.68-0.104,1.269-0.219,1.309-0.254
	c0.041-0.028,0.3-0.56,0.577-1.171c0.282-0.605,0.525-1.107,0.542-1.107C20.654,13.006,20.92,13.491,21.22,14.079z"/>
</svg>
