<?xml version="1.0" encoding="utf-8"?>
<!-- Generator: Adobe Illustrator 16.0.0, SVG Export Plug-In . SVG Version: 6.00 Build 0)  -->
<!DOCTYPE svg PUBLIC "-//W3C//DTD SVG 1.1//EN" "http://www.w3.org/Graphics/SVG/1.1/DTD/svg11.dtd">
<svg version="1.1" xmlns="http://www.w3.org/2000/svg" xmlns:xlink="http://www.w3.org/1999/xlink" x="0px" y="0px" width="40px"
	 height="40px" viewBox="0 0 40 40" enable-background="new 0 0 40 40" xml:space="preserve">
<g id="Layer_1">
	<path display="none" fill="#244269" d="M18.824,1.74c-0.494,0.486-1.061,1.029-1.264,1.215l-0.365,0.341l-1.702-0.43
		c-1.394-0.356-1.726-0.421-1.856-0.34c-0.082,0.049-0.421,0.77-0.794,1.669c-0.357,0.867-0.681,1.596-0.713,1.621
		c-0.041,0.024-0.81,0.162-1.718,0.316c-1.013,0.163-1.693,0.316-1.783,0.39c-0.122,0.114-0.129,0.3-0.097,1.92l0.049,1.792
		L7.121,11.19c-0.827,0.543-1.475,1.029-1.499,1.111c-0.025,0.097,0.276,0.81,0.721,1.751l0.77,1.588l-0.907,1.435
		c-0.503,0.786-0.933,1.507-0.948,1.604c-0.041,0.21-0.041,0.21,1.467,1.476c0.973,0.817,1.191,1.045,1.191,1.216
		c0,0.113-0.105,0.899-0.234,1.75c-0.194,1.28-0.219,1.563-0.13,1.702c0.073,0.122,0.527,0.283,1.775,0.64l1.669,0.479l0.122,0.413
		c0.065,0.228,0.284,0.997,0.478,1.702c0.203,0.713,0.414,1.321,0.47,1.354c0.146,0.098,0.454,0.081,1.588-0.081l0.989-0.138v4.814
		c0,3.16,0.033,4.862,0.082,4.968c0.049,0.09,0.17,0.154,0.284,0.154c0.129,0,1.191-0.689,2.958-1.913
		c1.767-1.224,2.787-1.881,2.853-1.839c0.057,0.032,1.297,0.892,2.756,1.903c1.727,1.2,2.723,1.849,2.861,1.849
		c0.113,0,0.234-0.065,0.283-0.154c0.049-0.105,0.08-1.92,0.08-5.316v-5.155l0.43,0.041c0.229,0.023,1.006,0.064,1.727,0.089
		c1.111,0.049,1.322,0.032,1.428-0.073c0.072-0.073,0.203-0.551,0.307-1.118c0.105-0.552,0.244-1.321,0.316-1.719l0.131-0.713
		l1.66-0.665c1.621-0.64,1.662-0.665,1.686-0.9c0.018-0.138-0.145-0.915-0.348-1.733c-0.203-0.819-0.365-1.549-0.365-1.613
		s0.551-0.689,1.215-1.395c0.674-0.696,1.217-1.336,1.217-1.417c0-0.073-0.438-0.697-0.973-1.386
		c-0.533-0.689-1.012-1.321-1.068-1.403c-0.082-0.129,0-0.413,0.484-1.734c0.602-1.628,0.658-1.839,0.479-1.986
		c-0.049-0.048-0.752-0.437-1.555-0.867S32.1,9.115,32.084,9.099c-0.016-0.008-0.072-0.786-0.137-1.71
		c-0.057-0.932-0.139-1.758-0.162-1.84c-0.072-0.187-0.146-0.194-2.027-0.34C28.6,5.12,28.113,5.055,28.057,4.981
		c-0.041-0.065-0.406-0.746-0.811-1.516c-0.396-0.77-0.803-1.451-0.9-1.507c-0.154-0.105-0.316-0.065-1.621,0.405
		c-0.793,0.284-1.549,0.559-1.66,0.599c-0.195,0.082-0.316,0-1.58-1.005c-0.893-0.705-1.435-1.086-1.565-1.086
		C19.781,0.872,19.465,1.123,18.824,1.74z M21.264,3.828c0.671,0.534,1.256,0.94,1.347,0.94c0.084,0,0.783-0.226,1.544-0.497
		c0.802-0.293,1.42-0.474,1.45-0.437c0.037,0.038,0.377,0.662,0.752,1.384c0.384,0.723,0.729,1.332,0.769,1.361
		c0.045,0.023,0.661,0.091,1.368,0.136c0.714,0.053,1.414,0.106,1.563,0.128l0.272,0.038l0.089,1.557
		c0.062,0.993,0.129,1.587,0.182,1.647c0.053,0.045,0.669,0.398,1.37,0.775c0.705,0.376,1.3,0.714,1.33,0.738
		c0.031,0.029-0.182,0.676-0.466,1.443c-0.286,0.768-0.527,1.459-0.527,1.542c0,0.135,0.233,0.451,1.566,2.159l0.329,0.429
		l-1.075,1.135c-0.594,0.632-1.09,1.204-1.106,1.271c-0.015,0.076,0.136,0.752,0.324,1.512c0.188,0.761,0.34,1.422,0.323,1.481
		c-0.015,0.061-0.616,0.339-1.375,0.641c-0.746,0.293-1.407,0.586-1.475,0.653c-0.084,0.083-0.219,0.617-0.398,1.617
		c-0.151,0.828-0.279,1.505-0.295,1.521c-0.007,0.007-0.691-0.016-1.521-0.053c-0.819-0.038-1.548-0.053-1.616-0.03
		c-0.067,0.021-0.512,0.609-0.978,1.301c-0.468,0.692-0.866,1.271-0.881,1.287c-0.015,0.022-0.669-0.278-1.443-0.663
		c-0.902-0.45-1.467-0.684-1.55-0.653c-0.067,0.022-0.707,0.405-1.407,0.842c-0.707,0.437-1.286,0.782-1.302,0.768
		c-0.414-0.543-1.963-2.37-2.031-2.407c-0.052-0.028-0.782,0.037-1.625,0.159c-0.903,0.127-1.549,0.18-1.579,0.143
		c-0.023-0.039-0.227-0.715-0.444-1.499c-0.309-1.104-0.429-1.45-0.557-1.533c-0.083-0.054-0.768-0.271-1.512-0.489
		c-0.745-0.211-1.377-0.414-1.407-0.436c-0.03-0.031,0.053-0.729,0.173-1.557c0.128-0.852,0.196-1.558,0.166-1.626
		C9.582,20.489,9.049,20,8.425,19.481c-0.618-0.527-1.137-0.979-1.152-1.008c-0.007-0.038,0.354-0.647,0.812-1.37
		c0.452-0.722,0.828-1.347,0.828-1.391c0-0.038-0.278-0.632-0.609-1.316c-0.331-0.685-0.64-1.316-0.678-1.415
		c-0.06-0.158,0.03-0.233,1.241-1.037c0.723-0.482,1.324-0.926,1.34-0.994c0.015-0.076,0.006-0.79-0.023-1.594
		c-0.021-0.806-0.021-1.49,0-1.52c0.023-0.029,0.692-0.158,1.475-0.286c0.79-0.136,1.497-0.286,1.579-0.338
		c0.098-0.061,0.361-0.602,0.714-1.496c0.384-0.941,0.602-1.4,0.678-1.4c0.06,0,0.759,0.166,1.542,0.369
		c0.895,0.225,1.473,0.338,1.549,0.301c0.067-0.031,0.587-0.519,1.166-1.075c0.572-0.557,1.083-1.016,1.121-1.016
		C20.053,2.888,20.617,3.309,21.264,3.828z M17.55,30.904c0.875,0.946,1.078,1.115,1.222,1.039c0.045-0.023,0.607-0.328,1.243-0.677
		l1.151-0.637l1.256,0.561c0.706,0.314,1.313,0.554,1.399,0.543c0.092-0.013,0.294-0.229,0.647-0.688l0.505-0.666v2.988
		c0,1.646-0.014,2.988-0.033,2.988c-0.021,0-0.943-0.565-2.054-1.255c-1.111-0.688-2.087-1.254-2.16-1.254
		c-0.069,0-1.038,0.565-2.158,1.254c-1.111,0.689-2.046,1.255-2.066,1.255s-0.033-1.429-0.033-3.182c0-3.011,0.007-3.18,0.118-3.18
		C16.659,29.994,17.039,30.355,17.55,30.904z"/>
	<path display="none" fill="#244269" d="M19.333,5.981c-2.379,0.336-4.501,1.428-6.177,3.167c-1.132,1.17-1.856,2.355-2.372,3.838
		c-0.429,1.248-0.546,1.974-0.546,3.448c-0.008,2.231,0.5,3.939,1.7,5.771c1.498,2.278,3.798,3.862,6.552,4.51
		c0.757,0.172,1.038,0.203,2.23,0.203c1.2,0,1.475-0.031,2.237-0.211c2.739-0.632,5.01-2.2,6.528-4.485
		c0.79-1.177,1.257-2.324,1.585-3.845c0.186-0.905,0.195-2.973,0-3.892c-0.437-2.091-1.327-3.799-2.738-5.289
		c-1.506-1.575-3.284-2.574-5.429-3.066C22.142,5.95,20.121,5.873,19.333,5.981z M22.437,7.947c2.111,0.464,3.959,1.641,5.212,3.322
		c0.498,0.664,1.177,2.014,1.377,2.74c0.589,2.125,0.409,4.214-0.512,6.125c-1.226,2.526-3.489,4.27-6.271,4.816
		c-0.58,0.119-2.464,0.119-3.045,0c-2.782-0.546-5.045-2.289-6.27-4.816c-1.127-2.339-1.142-5.017-0.027-7.356
		c0.443-0.934,0.858-1.543,1.502-2.229c1.384-1.466,3.114-2.38,5.107-2.692C20.105,7.761,21.843,7.816,22.437,7.947z"/>
	<path display="none" fill="#EE2F24" d="M20.373,10.225c-0.065,0.065-0.495,0.949-0.957,1.962c-0.575,1.248-0.892,1.856-1.005,1.905
		c-0.089,0.032-1.021,0.202-2.066,0.364c-1.045,0.162-1.969,0.324-2.042,0.365c-0.089,0.049-0.146,0.17-0.146,0.308
		c0,0.195,0.243,0.446,1.539,1.638c1.07,0.98,1.541,1.467,1.541,1.581c0,0.097-0.129,0.973-0.284,1.946
		c-0.153,0.979-0.283,1.888-0.283,2.018c0,0.283,0.121,0.446,0.34,0.446c0.081,0,0.948-0.454,1.937-1.013
		c0.989-0.561,1.831-1.014,1.88-1.014c0.041,0,0.9,0.421,1.904,0.932c0.998,0.512,1.889,0.933,1.971,0.933
		c0.08,0,0.201-0.081,0.268-0.187c0.105-0.161,0.072-0.381-0.293-2.229l-0.414-2.051l1.51-1.524
		c0.973-0.973,1.516-1.581,1.516-1.686c0-0.34-0.211-0.405-2.107-0.624c-1.006-0.114-1.938-0.235-2.084-0.251
		c-0.242-0.041-0.299-0.138-1.199-1.888C20.843,10.087,20.697,9.901,20.373,10.225z M21.22,14.079
		c0.3,0.588,0.588,1.103,0.635,1.142c0.052,0.052,0.519,0.127,1.238,0.208c0.636,0.069,1.19,0.138,1.234,0.15
		c0.053,0.018-0.234,0.352-0.819,0.94c-0.494,0.496-0.904,0.934-0.904,0.963s0.108,0.588,0.236,1.251
		c0.132,0.658,0.226,1.211,0.207,1.229c-0.017,0.017-0.523-0.219-1.124-0.519c-0.599-0.306-1.131-0.554-1.17-0.554
		c-0.041,0-0.566,0.277-1.166,0.611c-0.594,0.335-1.096,0.6-1.101,0.588c-0.012-0.005,0.063-0.548,0.173-1.2
		c0.104-0.652,0.19-1.223,0.196-1.275c0-0.052-0.427-0.49-0.951-0.974c-0.525-0.484-0.946-0.888-0.94-0.894
		c0.011-0.012,0.571-0.104,1.246-0.208c0.68-0.104,1.269-0.219,1.309-0.254c0.041-0.028,0.3-0.56,0.577-1.171
		c0.282-0.605,0.525-1.107,0.542-1.107C20.654,13.006,20.92,13.491,21.22,14.079z"/>
</g>
<g id="Layer_2" display="none">
	<g display="inline">
		<path fill="#EE2F24" stroke="#EE2F24" stroke-width="0.5" stroke-miterlimit="10" d="M14.022,16.797
			c1.671,0.851,2.867,1.988,3.33,4.031c0.064,0.279,0.17,0.666,0.098,0.914c-0.141,0.479-0.817,0.471-1.033,0.137
			c-0.146-0.225-0.149-0.643-0.213-0.896c-0.362-1.412-1.237-2.445-2.454-3.037c-0.614-0.297-1.413-0.456-2.299-0.448
			c-1.316,0.014-2.373,0.731-3.038,1.423c-0.567,0.588-0.977,1.234-1.188,2.16c-0.103,0.451-0.083,1.053-0.662,1.053
			c-0.978,0-0.432-1.598-0.214-2.143c0.589-1.486,1.688-2.539,3.077-3.174c-0.902-0.742-1.843-1.805-1.733-3.623
			c0.126-2.072,1.791-3.656,3.875-3.778c1.217-0.072,2.33,0.499,2.981,1.149c0.694,0.696,1.218,1.615,1.227,2.882
			C15.784,15.03,14.996,16.052,14.022,16.797z M9.523,11.597c-0.382,0.459-0.759,1.245-0.663,2.162
			c0.164,1.554,1.434,2.721,3.136,2.59c1.393-0.108,2.509-1.243,2.609-2.61c0.051-0.693-0.043-1.058-0.292-1.558
			c-0.473-0.948-1.464-1.724-2.901-1.578C10.542,10.69,9.903,11.14,9.523,11.597z"/>
	</g>
	<g display="inline">
		<path fill="#EE2F24" stroke="#EE2F24" stroke-width="0.5" stroke-miterlimit="10" d="M22.712,16.268
			c1.313,0.668,2.253,1.562,2.617,3.165c0.05,0.221,0.133,0.524,0.074,0.719c-0.11,0.374-0.64,0.368-0.811,0.106
			c-0.113-0.176-0.116-0.503-0.168-0.704c-0.284-1.107-0.971-1.92-1.925-2.384c-0.483-0.234-1.109-0.358-1.808-0.353
			c-1.031,0.011-1.861,0.574-2.383,1.118c-0.447,0.461-0.769,0.97-0.934,1.696c-0.082,0.356-0.065,0.826-0.52,0.826
			c-0.768,0-0.339-1.252-0.168-1.681c0.463-1.167,1.324-1.994,2.417-2.493c-0.709-0.582-1.449-1.417-1.362-2.843
			c0.1-1.628,1.406-2.871,3.044-2.967c0.954-0.056,1.829,0.392,2.34,0.902c0.546,0.545,0.957,1.268,0.962,2.262
			C24.097,14.881,23.479,15.683,22.712,16.268z M19.181,12.185c-0.3,0.361-0.598,0.978-0.521,1.697
			c0.129,1.221,1.125,2.137,2.463,2.035c1.092-0.085,1.97-0.976,2.05-2.05c0.038-0.544-0.033-0.83-0.229-1.223
			c-0.372-0.744-1.15-1.353-2.281-1.239C19.98,11.473,19.479,11.826,19.181,12.185z"/>
	</g>
	<g display="inline">
		<g>
			<path fill="#244269" d="M37.367,32.759L28.84,24.23c-1.271,1.977-2.951,3.656-4.927,4.928l8.526,8.527
				c1.361,1.361,3.57,1.361,4.927,0C38.729,36.328,38.729,34.12,37.367,32.759z"/>
			<path fill="#244269" d="M29.487,16.143c0-7.697-6.24-13.938-13.938-13.938c-7.696,0-13.938,6.241-13.938,13.938
				c0,7.698,6.242,13.938,13.938,13.938C23.247,30.081,29.487,23.841,29.487,16.143z M15.549,27.481
				c-6.251,0-11.338-5.086-11.338-11.338c0-6.251,5.087-11.338,11.338-11.338c6.252,0,11.339,5.086,11.339,11.338
				C26.889,22.396,21.802,27.481,15.549,27.481z"/>
		</g>
	</g>
</g>
<g id="Layer_3" display="none">
	<g display="inline">
		<path fill="#EE2F24" d="M20.099,12.532c-2.799,0-5.097-2.188-5.231-4.982c-0.004-0.081-0.007-0.164-0.007-0.245l0.041-0.652
			c0.342-2.637,2.574-4.597,5.197-4.597c2.848,0,5.172,2.284,5.237,5.116l0.095,0.142L25.327,7.57
			C25.175,10.373,22.908,12.532,20.099,12.532z M20.099,3.556c-1.872,0-3.464,1.398-3.705,3.251L16.375,6.97l-0.754,0.042l0.746,0.1
			l-0.004,0.151l0.003,0.213c0.096,1.994,1.736,3.556,3.733,3.556c2.04,0,3.679-1.595,3.735-3.633l0.003-0.115
			C23.832,5.228,22.157,3.556,20.099,3.556z"/>
		<path fill="#EE2F24" d="M29.623,21.934H10.484l-0.041-0.707c-0.043-0.738-0.102-1.316-0.15-1.799
			c-0.126-1.25-0.202-2.005,0.227-3.207C11,15,12.228,13.499,15.388,13.147c0.514-0.068,0.815-0.053,1.191-0.042
			c0.14,0.004,0.281,0.009,0.424,0.009h0.561l0.158,0.538c0.16,0.542,0.291,1.089,0.42,1.635c0.087,0.366,0.172,0.726,0.266,1.079
			l0.03-0.188l-0.855-3.048h4.943l-0.857,3.048l0.029,0.188c0.094-0.353,0.18-0.713,0.267-1.08c0.13-0.545,0.26-1.092,0.419-1.633
			l0.159-0.538h0.561c0.144,0,0.285-0.004,0.425-0.009c0.378-0.01,0.74-0.018,1.098,0.03c3.255,0.363,4.481,1.865,4.953,3.062
			c0.439,1.226,0.362,1.981,0.236,3.233c-0.049,0.482-0.107,1.06-0.15,1.797L29.623,21.934z M21.527,20.434h6.688
			c0.035-0.442,0.073-0.82,0.107-1.154c0.119-1.181,0.169-1.67-0.147-2.554c-0.459-1.161-1.68-1.871-3.621-2.087l-0.134-0.016
			c-0.243-0.034-0.489-0.028-0.743-0.02c-0.091,0.343-0.172,0.688-0.254,1.031c-0.312,1.31-0.634,2.664-1.389,3.941L21.527,20.434z
			 M18.771,20.434h2.481l-1.11-4.753l0.649-1.597h-1.559l0.648,1.597L18.771,20.434z M11.892,20.434h6.689l-0.508-0.859
			c-0.755-1.277-1.077-2.63-1.389-3.939c-0.082-0.345-0.164-0.689-0.254-1.033c-0.254-0.008-0.502-0.014-0.743,0.021l-0.133,0.016
			c-1.941,0.216-3.163,0.926-3.63,2.11c-0.307,0.86-0.257,1.349-0.138,2.529C11.819,19.611,11.857,19.99,11.892,20.434z"/>
		<path fill="#244269" d="M25.277,40.046H14.201l-2.006-10.364h15.089L25.277,40.046z M15.438,38.546h8.601l1.426-7.364H14.013
			L15.438,38.546z"/>
		<path fill="#244269" d="M34.727,32.074H28.51l0.448-4.131H10.98l0.448,4.131H5.273l-2.045-8.809h33.544L34.727,32.074z
			 M30.182,30.574h3.354l1.349-5.809H5.116l1.349,5.809h3.292l-0.448-4.131H30.63L30.182,30.574z"/>
	</g>
</g>
<g id="Layer_4">
	<g>
		<path fill="#244269" d="M35.29,23.148c1.734,0.884,2.978,2.064,3.46,4.185c0.065,0.291,0.176,0.694,0.098,0.949
			c-0.146,0.495-0.846,0.487-1.071,0.142c-0.149-0.234-0.153-0.666-0.222-0.932c-0.377-1.463-1.284-2.538-2.546-3.15
			c-0.64-0.31-1.468-0.475-2.391-0.467c-1.362,0.014-2.461,0.759-3.15,1.478c-0.591,0.611-1.017,1.282-1.236,2.243
			c-0.107,0.47-0.085,1.091-0.687,1.091c-1.015,0-0.447-1.656-0.222-2.222c0.611-1.545,1.751-2.638,3.194-3.297
			c-0.938-0.77-1.915-1.875-1.801-3.76c0.133-2.152,1.86-3.797,4.026-3.923c1.261-0.074,2.418,0.518,3.093,1.194
			c0.722,0.721,1.267,1.676,1.271,2.99C37.12,21.315,36.303,22.376,35.29,23.148z M30.621,17.75
			c-0.397,0.477-0.792,1.292-0.689,2.244c0.17,1.614,1.487,2.825,3.256,2.69c1.443-0.113,2.604-1.291,2.711-2.71
			c0.051-0.719-0.044-1.098-0.304-1.618c-0.491-0.983-1.521-1.789-3.017-1.638C31.678,16.808,31.014,17.274,30.621,17.75z"/>
	</g>
	<g>
		<path fill="#244269" d="M9.151,23.148c1.735,0.884,2.978,2.064,3.46,4.185c0.065,0.291,0.177,0.694,0.098,0.949
			c-0.145,0.496-0.845,0.487-1.071,0.142c-0.15-0.234-0.154-0.666-0.222-0.932c-0.377-1.463-1.285-2.538-2.546-3.15
			c-0.64-0.31-1.467-0.475-2.391-0.467c-1.363,0.015-2.461,0.759-3.151,1.478c-0.591,0.611-1.017,1.282-1.236,2.243
			c-0.107,0.47-0.085,1.091-0.687,1.091c-1.015,0-0.448-1.656-0.222-2.222c0.612-1.545,1.751-2.638,3.195-3.298
			c-0.938-0.769-1.915-1.874-1.8-3.759c0.132-2.152,1.86-3.797,4.025-3.923c1.262-0.074,2.418,0.518,3.093,1.194
			c0.722,0.721,1.266,1.676,1.272,2.99C10.982,21.316,10.164,22.377,9.151,23.148z M4.482,17.75
			c-0.397,0.477-0.792,1.292-0.689,2.244c0.17,1.614,1.487,2.825,3.256,2.69c1.444-0.113,2.604-1.29,2.711-2.711
			c0.05-0.719-0.043-1.097-0.304-1.617c-0.491-0.983-1.521-1.789-3.017-1.638C5.539,16.808,4.875,17.274,4.482,17.75z"/>
	</g>
	<g>
		<path fill="#EE2F24" stroke="#EE2F24" stroke-width="0.5" stroke-miterlimit="10" d="M23.605,22.807
			c2.637,1.344,4.522,3.137,5.253,6.36c0.102,0.44,0.268,1.051,0.154,1.441c-0.222,0.755-1.288,0.743-1.631,0.216
			c-0.228-0.354-0.234-1.014-0.336-1.414c-0.57-2.228-1.952-3.858-3.869-4.792c-0.97-0.468-2.229-0.719-3.626-0.706
			c-2.078,0.021-3.744,1.154-4.795,2.245c-0.895,0.927-1.541,1.946-1.874,3.407c-0.161,0.712-0.131,1.66-1.044,1.66
			c-1.543,0-0.68-2.52-0.338-3.379c0.93-2.345,2.664-4.007,4.854-5.009c-1.423-1.171-2.909-2.847-2.735-5.715
			c0.199-3.27,2.825-5.768,6.114-5.961c1.922-0.113,3.677,0.787,4.703,1.814c1.094,1.097,1.921,2.548,1.936,4.546
			C26.385,20.02,25.143,21.633,23.605,22.807z M16.509,14.603c-0.604,0.725-1.198,1.964-1.046,3.411
			c0.259,2.452,2.263,4.293,4.946,4.086c2.199-0.171,3.959-1.96,4.117-4.117c0.079-1.094-0.067-1.669-0.459-2.457
			c-0.748-1.495-2.312-2.719-4.579-2.49C18.115,13.174,17.108,13.882,16.509,14.603z"/>
	</g>
</g>
</svg>
